<svg width="47" height="37" viewBox="0 0 47 37" fill="none" xmlns="http://www.w3.org/2000/svg">
<g clip-path="url(#clip0_45_19)">
<path d="M23.1907 9.6429L23.5003 9.88606L23.8089 9.6429L31.3304 3.72102L31.8987 4.17513L25.9515 8.85677L24.8177 9.75032H41.1253C43.123 9.75046 44.5413 11.0045 44.5413 12.3333V30.8333C44.5413 32.1481 43.1212 33.4162 41.1253 33.4163H5.87531C3.87922 33.4163 2.45831 32.1482 2.45831 30.8333V12.3333C2.45831 11.0044 3.87746 9.75032 5.87531 9.75032H22.1859L21.0472 8.85677L15.0853 4.1761L15.6663 3.71907L23.1907 9.6429ZM5.37531 31.3333H41.6253V11.8333H5.37531V31.3333ZM30.1136 21.5833L18.1253 26.9769V16.1888L30.1136 21.5833Z" fill="#7461D1" stroke="#7461D1"/>
</g>
<defs>
<clipPath id="clip0_45_19">
<rect width="47" height="37" fill="white"/>
</clipPath>
</defs>
</svg>
