<svg width="499" height="184" viewBox="0 0 499 184" fill="none" xmlns="http://www.w3.org/2000/svg">
<mask id="mask0_1_69" style="mask-type:alpha" maskUnits="userSpaceOnUse" x="0" y="0" width="499" height="184">
<path fill-rule="evenodd" clip-rule="evenodd" d="M339.201 59.7209C341.18 64.234 342.17 69.0563 342.17 74.1876C342.17 69.0563 343.128 64.234 345.044 59.7209C347.022 55.2079 349.681 51.2821 353.019 47.9438C356.358 44.6053 360.283 41.9778 364.796 40.0613C369.309 38.083 374.132 37.0938 379.263 37.0938C374.132 37.0938 369.309 36.1356 364.796 34.219C360.283 32.2407 356.358 29.5823 353.019 26.2439C349.681 22.9054 347.022 18.9797 345.044 14.4666C343.128 9.9535 342.17 5.1313 342.17 0C342.17 5.1313 341.18 9.9535 339.201 14.4666C337.286 18.9797 334.658 22.9054 331.32 26.2439C327.982 29.5823 324.055 32.2407 319.542 34.219C315.029 36.1356 310.208 37.0938 305.076 37.0938C310.208 37.0938 315.029 38.083 319.542 40.0613C324.055 41.9778 327.982 44.6053 331.32 47.9438C334.658 51.2821 337.286 55.2079 339.201 59.7209ZM37.8912 178.408C45.4584 181.524 53.5262 183.082 62.0948 183.082C70.7748 183.082 78.6758 181.691 85.7978 178.909C92.9197 176.127 99.0959 172.176 104.326 167.058C109.556 161.939 113.618 155.874 116.511 148.863C119.405 141.741 120.851 133.951 120.851 125.494V125.327C120.851 123.769 120.74 122.322 120.518 120.987C120.406 119.652 120.239 118.261 120.017 116.814H62.4288V130.669H105.828C105.383 137.346 103.825 143.132 101.155 148.029C98.595 152.814 95.3123 156.764 91.3062 159.88C87.4113 162.995 82.9045 165.332 77.7855 166.891C72.7778 168.337 67.5476 169.061 62.0948 169.061C56.0857 169.061 50.2434 167.947 44.5681 165.722C38.8928 163.496 33.8294 160.27 29.3782 156.041C25.0383 151.812 21.5885 146.748 19.029 140.851C16.4696 134.842 15.1898 128.109 15.1898 120.653C15.1898 113.197 16.4139 106.521 18.8621 100.623C21.4216 94.6134 24.8714 89.5501 29.2113 85.4327C33.5513 81.204 38.559 77.9768 44.2343 75.7513C50.0208 73.5256 55.9745 72.4128 62.0948 72.4128C66.6575 72.4128 70.9974 73.0249 75.1148 74.249C79.2322 75.3617 83.0158 76.9754 86.4654 79.0896C90.0264 81.204 93.0866 83.7635 95.6461 86.7681L105.995 76.0851C100.988 70.4098 94.5889 66.014 86.7993 62.8982C79.1209 59.7824 70.8861 58.2245 62.0948 58.2245C53.6375 58.2245 45.6253 59.7824 38.0581 62.8982C30.6023 66.014 23.9811 70.4098 18.1945 76.0851C12.5191 81.7604 8.06788 88.3816 4.84073 95.9488C1.61358 103.516 0 111.751 0 120.653C0 129.556 1.61358 137.791 4.84073 145.357C8.06788 152.924 12.5191 159.546 18.1945 165.222C23.8698 170.897 30.4354 175.293 37.8912 178.408ZM150.761 177.24C157.214 181.134 164.56 183.082 172.795 183.082C182.141 183.082 189.986 180.968 196.331 176.739C202.674 172.511 207.514 167.169 210.852 160.715L198.166 154.705C195.829 158.934 192.601 162.495 188.485 165.389C184.478 168.282 179.471 169.728 173.461 169.728C168.787 169.728 164.281 168.56 159.941 166.223C155.601 163.886 152.04 160.38 149.259 155.708C146.855 151.668 145.489 146.716 145.163 140.851H212.188C212.299 140.294 212.355 139.571 212.355 138.681C212.466 137.791 212.521 136.956 212.521 136.177C212.521 127.72 210.852 120.208 207.514 113.643C204.286 107.077 199.612 101.958 193.492 98.2858C187.371 94.5022 180.084 92.6103 171.625 92.6103C163.279 92.6103 155.991 94.7247 149.758 98.9534C143.527 103.071 138.686 108.579 135.237 115.479C131.898 122.378 130.229 129.89 130.229 138.013C130.229 146.693 132.009 154.427 135.57 161.216C139.243 168.004 144.306 173.346 150.761 177.24ZM146.013 128.665C146.538 126.188 147.287 123.851 148.256 121.655C150.371 116.87 153.431 113.086 157.437 110.304C161.555 107.411 166.34 105.964 171.792 105.964C176.354 105.964 180.194 106.743 183.31 108.301C186.426 109.748 188.985 111.639 190.989 113.976C192.991 116.313 194.438 118.817 195.328 121.488C196.219 124.047 196.719 126.44 196.83 128.665H146.013ZM225.287 95.2811V180.411H240.309V133.005C240.309 128.332 241.256 123.936 243.148 119.819C245.04 115.701 247.655 112.418 250.993 109.97C254.331 107.411 258.115 106.131 262.343 106.131C268.241 106.131 272.803 107.856 276.031 111.306C279.37 114.644 281.039 120.375 281.039 128.499V180.411H295.895V132.672C295.895 127.998 296.841 123.658 298.733 119.652C300.624 115.534 303.239 112.252 306.578 109.803C309.916 107.355 313.699 106.131 317.928 106.131C323.938 106.131 328.555 107.8 331.783 111.139C335.121 114.477 336.79 120.208 336.79 128.332V180.411H351.647V125.828C351.647 115.924 349.198 107.912 344.303 101.791C339.517 95.6706 332.005 92.6103 321.768 92.6103C314.98 92.6103 309.137 94.1682 304.241 97.2842C299.344 100.4 295.45 104.351 292.557 109.136C290.553 104.239 287.27 100.289 282.708 97.2842C278.257 94.1682 272.86 92.6103 266.517 92.6103C262.956 92.6103 259.395 93.3337 255.834 94.7803C252.384 96.1157 249.324 97.9518 246.652 100.289C243.982 102.514 241.868 105.018 240.309 107.8H239.642V95.2811H225.287ZM365.167 95.2811V180.411H380.023V95.2811H365.167ZM365 77.2535C367.114 79.2565 369.619 80.2581 372.513 80.2581C375.516 80.2581 378.021 79.2565 380.023 77.2535C382.027 75.1391 383.028 72.6353 383.028 69.742C383.028 66.7374 382.027 64.2336 380.023 62.2306C378.021 60.1162 375.516 59.059 372.513 59.059C369.619 59.059 367.114 60.1162 365 62.2306C362.997 64.2336 361.996 66.7374 361.996 69.742C361.996 72.6353 362.997 75.1391 365 77.2535ZM393.975 95.2811V180.411H408.998V133.005C408.998 128.443 409.944 124.159 411.836 120.153C413.84 116.035 416.565 112.697 420.015 110.137C423.465 107.466 427.527 106.131 432.201 106.131C438.432 106.131 443.441 107.856 447.224 111.306C451.007 114.644 452.899 120.375 452.899 128.499V180.411H467.921V125.828C467.921 115.813 465.251 107.8 459.909 101.791C454.568 95.6706 446.722 92.6103 436.373 92.6103C430.254 92.6103 424.689 94.1126 419.682 97.1173C414.675 100.122 411.057 103.683 408.831 107.8H408.164V95.2811H393.975ZM480.532 95.2811V180.411H495.388V95.2811H480.532ZM480.365 77.2535C482.479 79.2565 484.984 80.2581 487.877 80.2581C490.881 80.2581 493.386 79.2565 495.388 77.2535C497.392 75.1391 498.393 72.6353 498.393 69.742C498.393 66.7374 497.392 64.2336 495.388 62.2306C493.386 60.1162 490.881 59.059 487.877 59.059C484.984 59.059 482.479 60.1162 480.365 62.2306C478.363 64.2336 477.361 66.7374 477.361 69.742C477.361 72.6353 478.363 75.1391 480.365 77.2535Z" fill="white"/>
</mask>
<g mask="url(#mask0_1_69)">
<path d="M976.271 -659.855H-229.276V333.055H976.271V-659.855Z" fill="url(#paint0_linear_1_69)"/>
</g>
<defs>
<linearGradient id="paint0_linear_1_69" x1="-83.1694" y1="188.984" x2="514.287" y2="43.9982" gradientUnits="userSpaceOnUse">
<stop stop-color="#439DDF"/>
<stop offset="0.524208" stop-color="#4F87ED"/>
<stop offset="0.781452" stop-color="#9476C5"/>
<stop offset="0.888252" stop-color="#BC688E"/>
<stop offset="1" stop-color="#D6645D"/>
</linearGradient>
</defs>
</svg>
